HIERARCHY
ROOT Pelvis
{
	OFFSET 0.000000 0.000000 0.000000
	CHANNELS 6 Xposition Yposition Zposition Xrotation Yrotation Zrotation
	JOINT LeftUpLeg_virtual
	{
		OFFSET 0.000000 0.000000 0.000000
		CHANNELS 3 Xrotation Yrotation Zrotation
		JOINT LeftUpLeg
		{
			OFFSET 8.479700 -4.795502 -0.379100
			CHANNELS 3 Xrotation Yrotation Zrotation
			JOINT LeftLeg
			{
				OFFSET 0.024144 -32.555107 0.112900
				CHANNELS 3 Xrotation Yrotation Zrotation
				JOINT LeftFoot
				{
					OFFSET -0.024144 -32.638630 -3.012600
					CHANNELS 3 Xrotation Yrotation Zrotation
					JOINT LeftToeBase
					{
						OFFSET 0.970200 -13.225400 11.864200
						CHANNELS 3 Xrotation Yrotation Zrotation
						End Site
						{
							OFFSET 0 0 0
						}
					}
				}
			}
		}
	}
	JOINT RightUpLeg_virtual
	{
		OFFSET 0.000000 0.000000 0.000000
		CHANNELS 3 Xrotation Yrotation Zrotation
		JOINT RightUpLeg
		{
			OFFSET -8.479700 -4.795502 -0.379100
			CHANNELS 3 Xrotation Yrotation Zrotation
			JOINT RightLeg
			{
				OFFSET -0.023144 -32.555092 0.112900
				CHANNELS 3 Xrotation Yrotation Zrotation
				JOINT RightFoot
				{
					OFFSET 0.023144 -32.638641 -3.012700
					CHANNELS 3 Xrotation Yrotation Zrotation
					JOINT RightToeBase
					{
						OFFSET -0.970200 -13.225400 11.864200
						CHANNELS 3 Xrotation Yrotation Zrotation
						End Site
						{
							OFFSET 0 0 0
						}
					}
				}
			}
		}
	}
	JOINT Hips_virtual
	{
		OFFSET 0.000000 0.000000 0.000000
		CHANNELS 3 Xrotation Yrotation Zrotation
		JOINT Hips
		{
			OFFSET -0.000000 -0.000000 -0.000000
			CHANNELS 3 Xrotation Yrotation Zrotation
			JOINT Spine
			{
				OFFSET 0.000000 7.722000 1.166200
				CHANNELS 3 Xrotation Yrotation Zrotation
				JOINT Spine1
				{
					OFFSET 0.000000 12.024101 0.248800
					CHANNELS 3 Xrotation Yrotation Zrotation
					JOINT Spine2
					{
						OFFSET 0.000000 11.502998 -0.491200
						CHANNELS 3 Xrotation Yrotation Zrotation
						JOINT Neck_virtual
						{
							OFFSET 0.000000 0.000000 0.000000
							CHANNELS 3 Xrotation Yrotation Zrotation
							JOINT Neck
							{
								OFFSET 0.000000 18.430702 -3.123100
								CHANNELS 3 Xrotation Yrotation Zrotation
								JOINT Head
								{
									OFFSET 0.000000 9.051102 1.034000
									CHANNELS 3 Xrotation Yrotation Zrotation
									End Site
									{
										OFFSET 0 0 0
									}
								}
							}
						}
						JOINT LeftShoulder_virtual
						{
							OFFSET 0.000000 0.000000 0.000000
							CHANNELS 3 Xrotation Yrotation Zrotation
							JOINT LeftShoulder
							{
								OFFSET 6.197800 13.665199 -4.064700
								CHANNELS 3 Xrotation Yrotation Zrotation
								JOINT LeftArm
								{
									OFFSET 7.778100 -0.187103 -1.709300
									CHANNELS 3 Xrotation Yrotation Zrotation
									JOINT LeftForeArm
									{
										OFFSET 22.049376 0.000000 0.000000
										CHANNELS 3 Xrotation Yrotation Zrotation
										JOINT LeftHand
										{
											OFFSET 23.009392 0.000000 0.000000
											CHANNELS 3 Xrotation Yrotation Zrotation
											End Site
											{
												OFFSET 0 0 0
											}
										}
									}
								}
							}
						}
						JOINT RightShoulder_virtual
						{
							OFFSET 0.000000 0.000000 0.000000
							CHANNELS 3 Xrotation Yrotation Zrotation
							JOINT RightShoulder
							{
								OFFSET -6.197800 13.665199 -4.064700
								CHANNELS 3 Xrotation Yrotation Zrotation
								JOINT RightArm
								{
									OFFSET -7.778100 -0.187103 -1.709300
									CHANNELS 3 Xrotation Yrotation Zrotation
									JOINT RightForeArm
									{
										OFFSET -22.049376 0.000000 0.000000
										CHANNELS 3 Xrotation Yrotation Zrotation
										JOINT RightHand
										{
											OFFSET -23.009392 0.000000 0.000000
											CHANNELS 3 Xrotation Yrotation Zrotation
											End Site
											{
												OFFSET 0 0 0
											}
										}
									}
								}
							}
						}
					}
				}
			}
		}
	}
}
MOTION
Frames: 4
Frame Time: 0.03333333
-0.000010 81.189789 -0.000004 0.000000 0.000000 0.000000 -9.026485 -5.362685 8.328713 9.484304 15.119005 -13.476766 7.845862 -0.044720 -0.091180 -6.658398 -0.480498 4.708159 0.000000 0.000000 0.000000 -9.026485 -5.362685 8.328713 -9.564174 -12.919340 -25.028018 26.323839 0.439898 0.295413 -8.397171 -9.706816 8.777920 0.000000 0.000000 0.000000 -9.026485 -5.362685 8.328713 0.000000 0.000000 -0.000001 2.405972 1.302803 -5.025918 4.666352 1.729999 -2.802044 0.000000 0.000000 0.000000 4.685184 1.690013 -2.793393 -2.808737 -0.350888 -5.041334 0.000000 0.000000 0.000000 4.685184 1.690013 -2.793393 4.034696 -13.464704 -7.420042 5.772113 3.721069 -60.112912 11.491849 -25.077055 -5.820583 0.000000 0.000000 0.000000 4.685184 1.690013 -2.793393 3.919268 12.466705 7.900377 -3.939679 -11.622641 68.565059 15.857365 12.603585 4.140676 0.000000 0.000000 0.000000 
-0.044083 81.245903 0.006491 0.000000 0.000000 0.000000 -9.114046 -5.304459 8.262330 8.747823 15.245751 -13.182358 9.176514 -0.108831 -0.119878 -6.580601 -0.385775 4.900950 0.000000 0.000000 0.000000 -9.114046 -5.304459 8.262330 -9.462136 -12.897433 -24.831721 26.331547 0.309191 0.283397 -8.321737 -9.728571 8.384875 0.000000 0.000000 0.000000 -9.114046 -5.304459 8.262330 0.000000 0.000001 -0.000001 2.528205 1.275536 -5.026829 4.913430 1.686253 -2.761731 0.000000 0.000000 0.000000 4.931893 1.643645 -2.752655 -3.587673 -0.245977 -5.289813 0.000000 0.000000 0.000000 4.931893 1.643645 -2.752655 3.979139 -13.925284 -7.123387 8.808447 0.870771 -59.276166 9.104187 -28.163822 -6.388886 0.000000 0.000000 0.000000 4.931893 1.643645 -2.752655 3.867134 12.882171 7.705445 -3.144267 -10.625765 68.163089 17.220664 14.146991 3.950152 0.000000 0.000000 0.000000 
-0.113886 81.383698 0.051966 0.000000 0.000000 0.000000 -9.296205 -5.170990 8.093623 7.351793 15.453868 -12.582264 11.646908 -0.142770 -0.152923 -6.160794 -0.233446 5.181596 0.000000 0.000000 0.000000 -9.296205 -5.170990 8.093623 -9.247579 -12.897418 -24.658817 26.321133 0.310209 0.283372 -7.359379 -9.832669 8.743909 0.000000 0.000000 0.000000 -9.296205 -5.170990 8.093623 0.000000 0.000000 0.000000 2.766498 1.226391 -5.029854 5.395335 1.608660 -2.665655 0.000000 0.000000 0.000000 5.413139 1.560643 -2.655693 -4.963399 -0.057444 -5.756623 0.000000 0.000000 0.000000 5.413139 1.560643 -2.655693 3.884198 -14.711367 -6.633769 14.149913 -3.920242 -57.208114 5.105496 -33.594992 -7.629398 0.000000 0.000000 0.000000 5.413139 1.560643 -2.655693 3.778978 13.585869 7.369177 -1.561299 -8.690970 67.291119 19.661254 17.108686 3.253672 0.000000 0.000000 0.000000 
-0.157101 81.587479 0.205097 0.000000 0.000000 0.000000 -9.517094 -4.987583 7.831860 6.864028 15.446275 -12.126553 12.597731 -0.160536 -0.165008 -5.317388 -0.124864 5.455070 0.000000 0.000000 0.000000 -9.517094 -4.987583 7.831860 -8.860366 -13.167861 -24.463805 26.002445 0.311299 0.281888 -6.032802 -9.775095 9.196693 0.000000 0.000000 0.000000 -9.517094 -4.987583 7.831860 0.000000 0.000000 0.000000 3.025305 1.180216 -5.041437 5.918542 1.537689 -2.526865 0.000000 0.000000 0.000000 5.935775 1.483429 -2.515835 -6.201184 0.091968 -6.231190 0.000000 0.000000 0.000000 5.935775 1.483429 -2.515835 3.794423 -15.397656 -6.279944 19.088015 -7.935479 -54.787949 2.088974 -38.551066 -8.015104 0.000000 0.000000 0.000000 5.935775 1.483429 -2.515835 3.699330 14.186504 7.099046 0.249532 -6.540137 66.152062 22.073775 20.344046 2.093870 0.000000 0.000000 0.000000 
